<svg id="visual" viewBox="0 0 960 300" width="960" height="300" xmlns="http://www.w3.org/2000/svg" xmlns:xlink="http://www.w3.org/1999/xlink" version="1.1"><rect x="0" y="0" width="960" height="300" fill="#24252A"></rect><path d="M0 140L26.7 137.3C53.3 134.7 106.7 129.3 160 132.5C213.3 135.7 266.7 147.3 320 155.3C373.3 163.3 426.7 167.7 480 173.7C533.3 179.7 586.7 187.3 640 192.5C693.3 197.7 746.7 200.3 800 192.2C853.3 184 906.7 165 933.3 155.5L960 146L960 301L933.3 301C906.7 301 853.3 301 800 301C746.7 301 693.3 301 640 301C586.7 301 533.3 301 480 301C426.7 301 373.3 301 320 301C266.7 301 213.3 301 160 301C106.7 301 53.3 301 26.7 301L0 301Z" fill="#00eaff"></path><path d="M0 229L26.7 217.3C53.3 205.7 106.7 182.3 160 182.8C213.3 183.3 266.7 207.7 320 211.8C373.3 216 426.7 200 480 197C533.3 194 586.7 204 640 196.2C693.3 188.3 746.7 162.7 800 164.2C853.3 165.7 906.7 194.3 933.3 208.7L960 223L960 301L933.3 301C906.7 301 853.3 301 800 301C746.7 301 693.3 301 640 301C586.7 301 533.3 301 480 301C426.7 301 373.3 301 320 301C266.7 301 213.3 301 160 301C106.7 301 53.3 301 26.7 301L0 301Z" fill="#00cdff"></path><path d="M0 214L26.7 220.2C53.3 226.3 106.7 238.7 160 233.2C213.3 227.7 266.7 204.3 320 198.7C373.3 193 426.7 205 480 204C533.3 203 586.7 189 640 191.2C693.3 193.3 746.7 211.7 800 218C853.3 224.3 906.7 218.7 933.3 215.8L960 213L960 301L933.3 301C906.7 301 853.3 301 800 301C746.7 301 693.3 301 640 301C586.7 301 533.3 301 480 301C426.7 301 373.3 301 320 301C266.7 301 213.3 301 160 301C106.7 301 53.3 301 26.7 301L0 301Z" fill="#00acff"></path><path d="M0 230L26.7 233.5C53.3 237 106.7 244 160 241.5C213.3 239 266.7 227 320 219.7C373.3 212.3 426.7 209.7 480 218.2C533.3 226.7 586.7 246.3 640 247.8C693.3 249.3 746.7 232.7 800 231.8C853.3 231 906.7 246 933.3 253.5L960 261L960 301L933.3 301C906.7 301 853.3 301 800 301C746.7 301 693.3 301 640 301C586.7 301 533.3 301 480 301C426.7 301 373.3 301 320 301C266.7 301 213.3 301 160 301C106.7 301 53.3 301 26.7 301L0 301Z" fill="#0087ff"></path><path d="M0 261L26.7 257.7C53.3 254.3 106.7 247.7 160 247C213.3 246.3 266.7 251.7 320 254.5C373.3 257.3 426.7 257.7 480 259.8C533.3 262 586.7 266 640 265.8C693.3 265.7 746.7 261.3 800 263.5C853.3 265.7 906.7 274.3 933.3 278.7L960 283L960 301L933.3 301C906.7 301 853.3 301 800 301C746.7 301 693.3 301 640 301C586.7 301 533.3 301 480 301C426.7 301 373.3 301 320 301C266.7 301 213.3 301 160 301C106.7 301 53.3 301 26.7 301L0 301Z" fill="#0059f3"></path></svg>