<svg id="visual" viewBox="0 0 960 300" width="960" height="300" xmlns="http://www.w3.org/2000/svg" xmlns:xlink="http://www.w3.org/1999/xlink" version="1.1"><rect x="0" y="0" width="960" height="300" fill="#24252A"></rect><path d="M0 34L40 55.5C80 77 160 120 240 135.7C320 151.3 400 139.7 480 115.3C560 91 640 54 720 52.7C800 51.3 880 85.7 920 102.8L960 120L960 0L920 0C880 0 800 0 720 0C640 0 560 0 480 0C400 0 320 0 240 0C160 0 80 0 40 0L0 0Z" fill="#0059f3" stroke-linecap="round" stroke-linejoin="miter"></path></svg>